<?xml version="1.0" encoding="UTF-8"?>
<!DOCTYPE svg PUBLIC "-//W3C//DTD SVG 1.1//EN" "http://www.w3.org/Graphics/SVG/1.1/DTD/svg11.dtd">
<!-- Creator: CorelDRAW -->
<svg xmlns="http://www.w3.org/2000/svg" xml:space="preserve" width="6.82666in" height="6.82666in" style="shape-rendering:geometricPrecision; text-rendering:geometricPrecision; image-rendering:optimizeQuality; fill-rule:evenodd; clip-rule:evenodd"
viewBox="0 0 6.82666 6.82666"
 xmlns:xlink="http://www.w3.org/1999/xlink">
 <defs>
  <style type="text/css">
   <![CDATA[
    .fil0 {fill:#FF9800}
    .fil2 {fill:#FFFFFE}
    .fil1 {fill:#FFFFFE;fill-rule:nonzero}
   ]]>
  </style>
 </defs>
 <g id="Layer_x0020_1">
  <metadata id="CorelCorpID_0Corel-Layer"/>
  <rect class="fil0" width="6.82666" height="6.82666" rx="0.853335" ry="0.853335"/>
  <g id="_212993992">
   <path id="_212994784" class="fil1" d="M4.52541 4.7844c0.390976,-0.083311 0.728382,-0.20939 0.981606,-0.364764 0.327083,-0.200693 0.51965,-0.453406 0.51965,-0.73311 0,-0.350929 -0.304933,-0.660602 -0.797937,-0.877571 -0.466488,-0.205299 -1.10848,-0.332287 -1.8154,-0.332287 -0.706917,0 -1.34891,0.126988 -1.8154,0.332287 -0.493004,0.216969 -0.797937,0.526642 -0.797937,0.877571 0,0.278705 0.191244,0.530591 0.516272,0.730874 0.253972,0.1565 0.59263,0.283409 0.984992,0.367063 0.0250512,-0.13598 0.0737323,-0.267555 0.145587,-0.38587 0.0803504,-0.132319 0.189476,-0.247193 0.322295,-0.327551 -0.0214055,-0.059937 -0.0351496,-0.123157 -0.0414606,-0.18852 -0.00206693,-0.0214173 -0.00267323,-0.0435394 -0.00332677,-0.0650591 -0.000909449,-0.0301575 -0.00148819,-0.0604055 -0.00171654,-0.0905787 -0.00157087,-0.20639 0.0552835,-0.402894 0.220441,-0.537079 0.103465,-0.0840591 0.228776,-0.125169 0.358488,-0.140579l-0.000165354 -0.00550787 0.107787 -0.00211811c0.0189016,-0.000370079 0.0104843,-2.3622e-005 0.0231102,0.000854331 0.161295,0.0112362 0.322705,0.0428819 0.451287,0.14735 0.165154,0.134185 0.222012,0.330693 0.220441,0.537079 -0.000228346,0.0301732 -0.000807087,0.0604213 -0.00171654,0.0905787 -0.000653543,0.0215236 -0.00126378,0.0436496 -0.00333465,0.0650748 -0.0063189,0.0653819 -0.0191299,0.129091 -0.0394134,0.189669l0.000858268 0.000523622c0.132929,0.0811181 0.241937,0.196823 0.321969,0.329894 0.0705079,0.117236 0.118295,0.247366 0.14302,0.381776z"/>
   <g>
    <path id="_212994520" class="fil1" d="M4.30343 1.84107c-0.0964567,0.0534449 -0.179531,0.132748 -0.241953,0.229693 -0.0603465,0.0937205 -0.10148,0.204008 -0.11665,0.323138 0.456874,0.0415157 0.923705,0.139996 1.32687,0.317425 0.11113,0.0489055 0.228205,0.109622 0.339016,0.182398 0.00700787,-0.020815 0.0108504,-0.0431772 0.0108504,-0.0663268l0 -0.0119134c0,-0.157217 -0.0450394,-0.622417 -0.121224,-0.741906 -0.0620039,-0.0972402 -0.144709,-0.176941 -0.240846,-0.230878 -0.0256063,0.0512559 -0.059685,0.0984921 -0.103453,0.139937 -0.261551,0.247657 -0.689264,0.168626 -0.852606,-0.141567zm0.476516 0.208126l-0.000177165 0 -0.00030315 0c-0.10076,-0.000125984 -0.22172,-0.0405236 -0.314098,-0.128 -0.0737835,-0.0698622 -0.129579,-0.169102 -0.142571,-0.30076 -0.000964567,-0.00976378 -0.00172047,-0.0266654 -0.00228346,-0.0449331 -0.000751969,-0.0244055 -0.00120472,-0.0540157 -0.00131496,-0.0682677 -0.00133858,-0.169866 0.0545433,-0.280693 0.142819,-0.351071 0.0859252,-0.0685079 0.198469,-0.0936969 0.316319,-0.0959724l-7.87402e-006 -0.000295276c0.00363386,-7.48031e-005 0.00721654,9.44882e-005 0.0107362,0.000476378 0.115114,0.00318898 0.224713,0.0287402 0.308811,0.0957913 0.0882717,0.070378 0.144154,0.181209 0.142819,0.351071 -0.000110236,0.014252 -0.000562992,0.0438622 -0.00131496,0.0682677 -0.000562992,0.0182677 -0.0013189,0.0351693 -0.00228346,0.0449331 -0.0133661,0.135413 -0.0647874,0.23474 -0.138118,0.304173 -0.0856417,0.0811024 -0.198894,0.11878 -0.315102,0.124272l1.1811e-005 0.000220472c-0.0013189,6.29921e-005 -0.00263386,9.05512e-005 -0.00394094,9.44882e-005l0 0z"/>
    <path id="_212994496" class="fil1" d="M2.52323 1.84107c0.0964567,0.0534449 0.179531,0.132748 0.241953,0.229693 0.0603465,0.0937205 0.10148,0.204008 0.11665,0.323138 -0.456874,0.0415157 -0.923705,0.139996 -1.32687,0.317425 -0.11113,0.0489055 -0.228205,0.109622 -0.339016,0.182398 -0.00700787,-0.020815 -0.0108504,-0.0431772 -0.0108504,-0.0663268l0 -0.0119134c0,-0.157217 0.0450394,-0.622417 0.121224,-0.741906 0.0620039,-0.0972402 0.144709,-0.176941 0.240846,-0.230878 0.0256063,0.0512559 0.059685,0.0984921 0.103453,0.139937 0.261551,0.247657 0.689264,0.168626 0.852606,-0.141567zm-0.476516 0.208126l0.000177165 0 0.00030315 0c0.10076,-0.000125984 0.22172,-0.0405236 0.314098,-0.128 0.0737835,-0.0698622 0.129579,-0.169102 0.142571,-0.30076 0.000964567,-0.00976378 0.00172047,-0.0266654 0.00228346,-0.0449331 0.000751969,-0.0244055 0.00120472,-0.0540157 0.00131496,-0.0682677 0.00133858,-0.169866 -0.0545433,-0.280693 -0.142819,-0.351071 -0.0859252,-0.0685079 -0.198469,-0.0936969 -0.316319,-0.0959724l7.87402e-006 -0.000295276c-0.00363386,-7.48031e-005 -0.00721654,9.44882e-005 -0.0107362,0.000476378 -0.115114,0.00318898 -0.224713,0.0287402 -0.308811,0.0957913 -0.0882717,0.070378 -0.144154,0.181209 -0.142819,0.351071 0.000110236,0.014252 0.000562992,0.0438622 0.00131496,0.0682677 0.000562992,0.0182677 0.0013189,0.0351693 0.00228346,0.0449331 0.0133661,0.135413 0.0647874,0.23474 0.138118,0.304173 0.0856417,0.0811024 0.198894,0.11878 0.315102,0.124272l-1.1811e-005 0.000220472c0.0013189,6.29921e-005 0.00263386,9.05512e-005 0.00394094,9.44882e-005l0 0z"/>
   </g>
   <path id="_212994448" class="fil1" d="M3.01458 4.26077c-0.0935236,-0.0902362 -0.164248,-0.218417 -0.180724,-0.388492 -0.0012126,-0.0126063 -0.00217323,-0.0344331 -0.00288189,-0.0580354 -0.00096063,-0.0315197 -0.00153543,-0.0697638 -0.00167323,-0.0881654 -0.00169685,-0.219417 0.0691339,-0.362571 0.181039,-0.45348 0.108913,-0.0884961 0.251571,-0.121016 0.400957,-0.123957l-1.1811e-005 -0.000389764c0.00461024,-9.05512e-005 0.00914567,0.000122047 0.0136024,0.00061811 0.145921,0.00412205 0.284846,0.037122 0.391441,0.123728 0.111894,0.0909094 0.182736,0.234063 0.181039,0.45348 -0.000137795,0.0184016 -0.000712598,0.0566457 -0.00167323,0.0881654 -0.000708661,0.0236024 -0.00166929,0.0454291 -0.00288583,0.0580354 -0.0169409,0.174921 -0.082126,0.303213 -0.175075,0.392902 -0.265402,0.0444213 -0.617043,0.0502165 -0.803154,-0.00440945zm-0.188811 -0.099315c-0.114531,0.0689528 -0.213228,0.169776 -0.287752,0.292508 -0.072126,0.118756 -0.121732,0.258098 -0.141039,0.408638 0.0163307,-0.00461811 0.0334921,-0.00709843 0.0511929,-0.00709843l1.93031 0c0.0177047,0 0.034874,0.00248425 0.0512047,0.00710236 -0.0190866,-0.149098 -0.0678307,-0.287146 -0.138705,-0.405004 -0.0739764,-0.122992 -0.17211,-0.22424 -0.286122,-0.293815 -0.0312165,0.0610709 -0.0719606,0.117469 -0.123567,0.167268l-0.0204409 0.0197244 -0.0280157 0.00468504c-0.237937,0.0398268 -0.615252,0.0602913 -0.844043,-0.00685827l-0.0215906 -0.00633858 -0.0161929 -0.015622c-0.0512047,-0.0494055 -0.0928425,-0.104969 -0.12524,-0.165189z"/>
   <path id="_212994400" class="fil2" d="M2.32891 4.94313l2.16885 0c0.072248,0 0.131354,0.057189 0.131354,0.127083l0 0.696575 -2.43155 0 0 -0.696575c0,-0.0698976 0.0591063,-0.127083 0.13135,-0.127083z"/>
  </g>
 </g>
</svg>
